<?xml version="1.0" standalone="no"?>
<!DOCTYPE svg PUBLIC "-//W3C//DTD SVG 20010904//EN"
 "http://www.w3.org/TR/2001/REC-SVG-20010904/DTD/svg10.dtd">
<svg version="1.0" xmlns="http://www.w3.org/2000/svg"
 width="808.000000pt" height="808.000000pt" viewBox="0 0 808.000000 808.000000"
 preserveAspectRatio="xMidYMid meet">

<g transform="translate(0.000000,808.000000) scale(0.100000,-0.100000)"
fill="#000000" stroke="none">
<path d="M3740 7539 c-753 -43 -1439 -300 -1967 -736 -126 -104 -338 -321
-432 -443 -385 -496 -613 -1075 -687 -1752 -24 -213 -24 -658 0 -863 43 -373
122 -679 256 -991 445 -1037 1376 -1717 2558 -1868 565 -72 1114 -24 1597 141
421 144 726 331 1015 622 124 125 283 316 277 334 -1 5 -209 157 -462 337
l-458 327 -72 -86 c-346 -412 -760 -640 -1236 -681 -105 -10 -121 -9 -144 6
-14 9 -25 12 -25 8 0 -5 -5 -2 -11 6 -9 13 -10 13 -6 0 2 -8 10 -14 16 -13 6
2 11 -2 11 -8 0 -6 -8 -8 -17 -5 -10 3 -40 6 -66 8 -45 2 -48 3 -45 27 2 20 9
27 31 29 15 2 27 8 27 15 0 8 3 8 12 -1 14 -14 68 -16 68 -2 0 5 -7 7 -15 4
-10 -4 -15 0 -16 12 0 11 -3 14 -6 7 -7 -19 -23 -16 -23 5 0 10 -3 13 -8 7 -4
-6 -14 -10 -22 -10 -8 1 -21 -3 -28 -8 -9 -7 -11 -6 -7 6 4 8 -1 29 -10 46
-12 24 -12 31 -3 32 7 1 19 2 27 3 8 0 16 8 18 16 4 12 3 13 -5 1 -8 -11 -12
-9 -22 10 -9 17 -10 24 -2 27 8 2 7 8 -3 19 -14 14 -19 75 -20 276 0 26 -2 47
-5 47 -3 0 -6 63 -6 140 -2 139 -1 140 21 140 34 0 37 26 9 60 -25 29 -25 30
-4 30 12 0 19 -4 15 -9 -3 -5 -1 -12 5 -16 10 -6 15 11 9 30 -7 23 -3 135 5
135 4 0 6 9 3 20 -3 11 -1 18 4 14 5 -3 10 14 11 38 1 24 3 60 4 80 0 21 -2
35 -7 33 -4 -3 -9 0 -11 7 -2 6 -12 12 -22 14 -12 2 -16 -2 -12 -12 6 -16 -2
-18 -22 -5 -11 6 -10 10 5 16 10 5 21 8 25 7 3 -1 9 6 12 15 5 12 2 14 -14 10
-17 -4 -19 -3 -10 8 7 8 9 19 5 25 -3 5 -1 10 4 10 6 0 11 -4 11 -10 0 -5 5
-10 11 -10 8 0 8 4 0 14 -7 8 -21 14 -32 13 -12 -1 -15 -5 -9 -11 13 -13 13
-29 0 -21 -10 6 -14 -7 -11 -31 1 -7 -6 -14 -14 -18 -11 -4 -14 -2 -8 7 14 22
12 37 -5 38 -14 0 -13 2 3 9 17 7 17 9 3 9 -10 1 -18 8 -18 16 0 9 6 12 17 8
11 -4 14 -3 9 6 -5 7 -15 10 -23 7 -11 -5 -13 -2 -9 10 5 14 4 15 -7 5 -11 -9
-17 -7 -28 6 -13 17 -13 17 5 3 18 -14 19 -13 13 2 -4 13 -2 16 11 11 9 -3 23
-10 30 -16 8 -6 12 -6 12 2 0 6 5 11 11 11 5 0 7 -5 3 -12 -5 -7 -3 -8 7 -2 8
5 21 7 30 6 27 -5 19 48 -8 54 -36 10 -49 32 -30 52 10 9 17 11 17 5 0 -6 -6
-14 -12 -16 -7 -3 -3 -6 10 -6 12 -1 22 -5 22 -9 0 -4 9 -8 20 -9 22 -2 25 9
10 37 -7 13 -6 19 5 24 13 5 13 9 3 27 -10 17 -10 23 0 26 6 3 12 11 12 18 0
7 7 16 16 19 12 4 15 14 11 34 -3 18 4 40 22 69 69 111 121 201 121 211 0 7 8
12 19 12 29 0 73 40 68 61 -3 12 0 19 9 19 8 0 14 6 14 13 0 8 10 23 23 34 29
27 83 61 75 47 -4 -5 -8 -38 -9 -72 -2 -50 -7 -68 -26 -88 -29 -31 -26 -48 9
-52 24 -3 26 -6 21 -41 -3 -21 -1 -41 4 -44 5 -3 8 8 6 26 -2 18 0 25 3 17 4
-8 13 -19 21 -23 8 -5 18 -18 23 -30 l9 -22 0 22 c1 31 17 37 41 13 26 -26 26
-17 -2 20 -23 32 -20 47 9 36 14 -6 15 -9 4 -15 -9 -6 -10 -11 -2 -15 17 -11
25 21 13 52 -11 27 -15 55 -13 80 1 7 16 12 39 12 58 0 66 10 58 68 -6 48 -5
51 24 74 20 15 29 30 25 39 -3 9 -37 39 -75 68 -75 57 -80 65 -73 104 8 43 30
32 37 -18 4 -24 11 -47 17 -50 11 -8 11 -7 -2 57 -6 29 -18 61 -27 71 -14 16
-14 19 3 35 10 9 15 11 11 5 -4 -7 -2 -13 5 -13 7 0 9 10 6 30 -6 26 -4 30 16
28 13 -1 35 7 50 17 23 17 26 25 22 55 -3 22 1 46 11 65 38 70 96 212 114 278
18 65 18 70 2 51 -9 -12 -22 -30 -28 -40 -7 -11 0 15 13 56 23 68 25 86 20
186 -3 73 -11 122 -21 142 -26 50 -37 47 -14 -4 23 -54 21 -133 -5 -194 l-15
-35 -1 67 c-1 37 -6 91 -12 120 -11 49 -12 51 -22 28 -9 -23 -11 -22 -18 23
-7 47 -19 75 -19 47 0 -8 -23 11 -51 41 -33 35 -42 42 -26 19 13 -19 30 -46
36 -60 13 -27 11 -25 -35 32 -11 14 -35 35 -53 46 l-33 20 36 12 c20 6 40 9
45 5 10 -6 8 48 -3 75 -4 9 4 30 19 50 l25 35 -21 16 -22 17 21 6 c12 4 22 14
22 21 0 19 -22 65 -31 65 -4 0 -5 8 -2 19 3 11 -3 24 -14 32 -11 8 -22 22 -26
32 -4 10 -22 24 -42 32 -64 28 -130 16 -215 -36 -40 -25 -47 -35 -67 -96 -16
-49 -18 -70 -10 -75 13 -8 16 -82 4 -115 -6 -16 -4 -23 10 -27 20 -6 69 -82
79 -121 5 -20 13 -24 47 -27 l42 -3 -52 -57 c-33 -36 -56 -73 -63 -100 -7 -24
-18 -55 -26 -69 -16 -30 -45 -160 -38 -171 6 -9 -37 -38 -57 -38 -9 0 -28 10
-43 21 -23 18 -32 20 -51 11 -20 -9 -30 -6 -69 24 -47 35 -65 41 -82 24 -23
-23 -302 385 -453 662 -38 69 -61 101 -61 83 0 -41 266 -468 418 -669 43 -58
70 -102 63 -104 -17 -6 -2 -70 27 -114 25 -39 24 -64 -3 -74 -13 -5 -326 83
-417 118 -43 16 -117 1 -149 -31 -37 -38 -43 -88 -36 -311 6 -168 11 -206 32
-277 6 -17 3 -23 -9 -23 -10 0 -16 -9 -16 -25 0 -18 11 -32 43 -51 23 -15 44
-28 47 -31 2 -2 -8 -15 -23 -29 -15 -14 -27 -21 -27 -17 0 4 -7 -1 -15 -11
-17 -23 -41 -29 -66 -16 -13 7 -21 4 -33 -13 -13 -17 -16 -18 -12 -4 9 28 -9
52 -59 83 -25 16 -43 34 -41 40 3 7 -5 9 -19 7 -17 -4 -24 1 -28 18 -5 20 -8
21 -23 8 -16 -13 -16 -12 -5 9 7 14 8 22 1 22 -5 0 -10 7 -10 15 0 8 -6 15
-14 15 -18 0 -17 72 2 89 9 9 12 9 12 0 0 -7 3 -10 6 -6 3 3 3 11 -1 17 -5 8
-11 8 -21 -1 -11 -9 -14 -8 -15 2 -9 85 -4 100 18 54 8 -17 8 -25 0 -25 -6 0
-7 -3 -4 -6 4 -4 13 -1 22 6 10 8 15 9 15 1 0 -6 9 -11 19 -11 11 0 23 -4 26
-10 10 -17 25 -11 25 9 0 12 -6 18 -17 17 -9 -2 -24 4 -34 13 -10 9 -24 21
-31 27 -19 16 -68 73 -68 79 0 3 11 3 24 1 22 -4 24 -2 16 17 -5 12 -12 43
-15 70 -3 26 -10 47 -16 47 -5 0 -9 -5 -9 -11 0 -5 -5 -7 -11 -3 -9 5 -10 -1
-5 -20 5 -19 3 -26 -8 -26 -12 0 -30 33 -27 52 0 4 -5 5 -12 2 -7 -2 -21 4
-31 15 -10 11 -24 17 -31 15 -7 -3 -16 0 -21 7 -5 9 -2 10 9 6 14 -5 17 -1 15
23 -1 17 -7 30 -12 30 -5 0 -6 3 -3 7 4 3 -1 15 -10 26 -10 11 -13 18 -8 15 6
-3 19 4 30 15 l20 20 -24 -13 c-18 -9 -26 -9 -35 1 -8 9 -8 10 2 5 23 -14 33
5 11 23 -18 14 -20 21 -10 39 15 28 15 28 -21 43 -41 16 -81 57 -74 75 3 7 0
11 -7 8 -7 -2 -13 4 -14 16 -2 25 15 37 23 16 5 -14 8 -14 29 0 20 13 22 19
12 34 -6 11 -13 17 -16 15 -2 -3 2 -11 9 -20 12 -15 11 -16 -22 -19 -8 -1 -13
11 -13 31 0 17 3 29 7 27 3 -2 11 10 17 26 5 17 7 30 4 30 -4 0 4 11 17 25 22
24 53 34 48 17 -2 -5 13 -33 32 -63 19 -30 34 -57 33 -61 -2 -4 5 -4 14 -1 13
5 15 2 11 -15 -4 -12 -3 -20 2 -17 10 6 20 -31 20 -80 0 -44 -20 -109 -38
-127 -7 -7 -12 -20 -12 -29 0 -10 -4 -21 -10 -24 -5 -3 -10 -14 -10 -23 0 -27
49 66 73 137 16 49 23 60 31 50 6 -8 18 -15 26 -17 8 -2 1 11 -17 27 -31 31
-46 69 -39 106 2 11 0 25 -5 31 -6 7 -1 18 12 30 l22 19 -5 -32 c-2 -18 -1
-30 3 -28 4 3 13 -3 20 -12 8 -9 9 -14 3 -10 -7 4 -17 0 -24 -8 -10 -12 -6
-20 20 -47 l33 -32 18 23 c11 13 19 33 19 45 0 37 28 26 35 -13 16 -92 16 -88
6 -66 -8 18 -10 18 -12 3 -1 -10 -3 -27 -4 -38 -1 -11 -3 -26 -4 -32 -1 -9 -4
-8 -11 2 -5 8 -10 10 -10 4 0 -5 4 -14 8 -20 5 -5 17 -35 27 -68 15 -50 16
-66 6 -112 -7 -30 -17 -56 -22 -59 -5 -3 -6 2 -2 12 5 14 3 15 -7 6 -7 -6 -9
-16 -6 -21 10 -16 41 -7 45 14 1 10 9 26 16 34 15 17 70 155 80 200 5 23 2 29
-16 35 -12 4 -17 10 -12 14 5 3 13 15 16 26 7 19 6 19 -7 2 -12 -16 -14 -16
-20 -1 -7 19 3 64 15 64 5 0 9 -9 9 -21 0 -15 4 -19 16 -15 13 5 15 1 9 -21
-5 -23 -4 -26 6 -15 11 10 11 19 0 47 -7 19 -9 44 -6 56 5 14 1 27 -13 39 -13
13 -18 27 -15 44 7 33 31 34 35 1 3 -29 18 -34 33 -11 12 20 -6 71 -25 71 -8
0 -14 -6 -12 -12 1 -7 -4 -13 -12 -13 -19 0 -25 20 -15 48 6 15 5 21 -1 17 -6
-3 -7 1 -4 9 3 9 10 16 15 16 5 0 9 8 9 17 0 25 -23 83 -33 83 -5 0 -6 7 -3
16 3 8 1 25 -6 37 -10 20 -10 21 5 8 22 -17 22 -2 0 29 l-17 25 23 -20 c16
-14 22 -15 19 -5 -2 8 -6 17 -10 20 -4 3 -10 22 -13 42 -4 26 -2 37 9 41 9 4
18 2 21 -3 4 -6 2 -10 -4 -10 -6 0 -8 -7 -5 -15 10 -25 26 -17 22 13 -2 21 -8
27 -25 26 -18 0 -24 6 -29 34 -6 29 -9 33 -18 20 -6 -8 -15 -17 -21 -19 -5 -2
-9 -7 -7 -11 1 -5 -2 -8 -8 -8 -5 0 -10 7 -10 15 0 13 -4 14 -21 5 -16 -9 -18
-14 -8 -26 9 -11 8 -14 -7 -14 -15 0 -16 -2 -5 -9 8 -5 11 -16 6 -30 -5 -16
-3 -20 9 -15 15 6 17 -18 3 -32 -4 -4 -7 -12 -7 -18 0 -6 4 -5 9 2 6 10 11 9
22 -4 9 -12 10 -15 2 -10 -19 11 -17 -49 3 -68 10 -10 11 -16 3 -16 -8 0 -9
-3 0 -13 6 -8 8 -17 4 -21 -4 -3 -7 -43 -8 -89 -1 -45 -3 -98 -4 -117 l-2 -35
-13 30 c-7 17 -11 35 -7 40 8 14 7 224 -1 219 -4 -2 -8 6 -10 18 -2 13 -9 22
-16 20 -14 -2 -16 14 -2 23 13 8 0 36 -14 28 -6 -3 -3 2 6 13 23 27 8 55 -18
33 -16 -13 -16 -12 -4 8 12 19 12 24 -4 42 -11 12 -25 21 -31 21 -7 0 -15 7
-19 15 -6 17 -26 20 -26 4 0 -5 5 -7 10 -4 6 3 10 -1 10 -9 0 -8 -4 -18 -10
-21 -5 -3 -10 -12 -10 -18 0 -7 5 -4 11 6 5 9 15 17 21 17 7 0 7 -4 -1 -13 -6
-8 -8 -17 -4 -20 3 -4 1 -7 -5 -7 -13 0 -11 -35 3 -47 4 -5 6 -3 3 2 -3 6 0
16 8 23 11 10 15 8 24 -8 6 -11 7 -20 1 -20 -5 0 -11 -7 -15 -15 -3 -8 -2 -14
2 -14 23 4 32 -4 32 -25 0 -17 7 -27 22 -32 21 -6 21 -7 3 -20 -14 -11 -15
-15 -4 -19 8 -3 15 -21 16 -42 1 -21 4 -47 8 -60 4 -17 1 -23 -12 -24 -15 0
-15 -2 -3 -7 13 -6 19 -46 10 -77 -6 -23 -7 -32 -8 -61 -1 -19 -9 -34 -18 -38
-8 -3 -12 -2 -9 4 3 6 1 10 -5 10 -8 0 -9 7 -5 18 8 20 9 64 3 142 -5 59 -1
83 13 74 5 -3 9 0 9 5 0 6 -4 11 -9 11 -19 0 -32 -31 -34 -83 -3 -47 -8 -60
-35 -88 -30 -31 -32 -31 -32 -11 0 15 -9 26 -25 32 -14 5 -25 17 -26 27 0 10
-3 13 -5 6 -5 -12 -61 11 -76 32 -5 6 -8 3 -8 -7 0 -11 -5 -15 -15 -12 -8 4
-15 10 -15 14 0 13 38 18 49 7 8 -8 11 -3 11 17 0 23 3 27 18 21 12 -4 11 -1
-5 15 -27 24 -29 35 -7 26 9 -3 12 -2 9 5 -4 6 1 19 11 30 16 18 16 19 0 19
-9 0 -15 -4 -12 -9 7 -10 -19 -23 -28 -14 -8 8 34 53 49 53 7 0 12 -15 12 -35
0 -19 -4 -35 -9 -35 -4 0 -8 -8 -8 -17 0 -14 4 -12 17 7 18 26 19 102 2 129
-9 14 -10 13 -5 -2 4 -12 2 -17 -6 -15 -18 6 -22 39 -6 50 10 8 10 9 -2 5 -8
-2 -20 3 -27 12 -9 11 -12 12 -13 3 0 -7 -4 -11 -8 -8 -4 2 -9 -6 -10 -20 -1
-16 3 -24 14 -24 14 0 14 3 4 15 -10 12 -10 15 4 15 9 0 16 -6 16 -12 0 -16
-15 -40 -24 -39 -3 1 -7 1 -8 0 -2 0 -13 -2 -26 -3 -21 -3 -21 -2 -5 16 9 10
12 19 7 19 -5 1 -13 2 -19 4 -5 1 -14 3 -20 4 -5 1 -3 6 5 11 12 7 11 13 -10
35 -27 29 -63 30 -68 3 -2 -13 3 -18 17 -18 12 0 21 5 21 11 0 5 -5 7 -12 3
-7 -4 -8 -3 -4 5 9 15 26 5 26 -16 0 -10 6 -13 18 -8 13 5 14 3 5 -6 -8 -8 -9
-19 -3 -35 8 -21 7 -23 -12 -21 -12 2 -40 0 -62 -4 -37 -6 -39 -6 -21 7 11 8
28 11 39 8 21 -7 21 -6 2 15 -20 22 -32 28 -21 11 10 -17 -7 -11 -22 8 -8 9
-11 11 -7 3 5 -11 3 -13 -9 -8 -9 3 -19 1 -23 -5 -4 -6 -3 -8 2 -5 6 3 16 2
24 -3 12 -7 11 -12 -4 -29 -11 -12 -14 -21 -7 -21 7 0 10 -10 7 -25 -3 -14 0
-25 5 -25 5 0 9 -5 9 -11 0 -8 -4 -9 -13 0 -8 6 -18 7 -23 3 -4 -4 -2 1 5 11
11 14 11 17 0 17 -11 0 -11 3 1 11 12 9 11 10 -7 6 -21 -5 -22 -2 -18 24 3 17
1 29 -5 29 -6 0 -8 5 -4 12 4 7 3 8 -4 4 -7 -4 -12 -3 -12 2 0 9 -45 8 -72 -2
-10 -3 -25 -8 -34 -11 -8 -3 -12 -10 -8 -16 4 -7 3 -9 -4 -5 -5 3 -12 3 -15
-1 -2 -5 -3 -3 -1 3 1 6 -2 16 -8 22 -15 15 -2 29 32 34 21 3 30 0 30 -9 0 -8
5 -11 12 -7 8 5 5 13 -10 25 -27 21 -27 25 -3 25 11 0 18 -3 16 -7 -3 -3 3
-13 13 -20 20 -16 72 -19 72 -4 0 6 -10 10 -22 10 -12 0 -22 7 -24 18 -1 9 1
15 6 12 4 -3 10 1 13 9 4 10 0 12 -14 9 -15 -4 -19 0 -19 20 0 17 7 26 21 30
13 4 19 10 14 19 -3 7 3 2 15 -11 22 -25 68 -42 54 -19 -4 7 -3 8 4 4 6 -4 9
-13 6 -21 -4 -10 1 -12 18 -9 13 2 17 2 11 -2 -7 -3 -13 -12 -13 -19 0 -7 -8
-16 -17 -18 -17 -4 -17 -5 0 -6 10 0 15 -5 12 -11 -3 -5 -1 -10 4 -10 6 0 11
12 11 26 0 14 3 23 8 20 4 -2 8 10 9 27 1 39 -10 47 -48 37 -16 -5 -29 -8 -30
-7 -6 15 -5 36 2 31 5 -3 9 2 9 11 0 13 6 16 25 11 19 -5 25 -3 25 11 0 14 3
14 12 5 10 -10 10 -15 -1 -21 -11 -7 -10 -13 8 -32 11 -12 21 -26 21 -31 0 -4
7 -8 17 -8 15 0 15 1 0 18 -19 20 -23 37 -7 27 6 -3 10 1 10 10 0 10 5 13 12
9 7 -4 8 -3 4 4 -4 6 -13 9 -20 6 -8 -3 -17 -1 -21 5 -6 10 10 15 43 14 15 -1
16 14 0 23 -6 4 -14 2 -16 -4 -2 -7 -11 -12 -20 -11 -11 0 -12 2 -4 6 6 2 12
9 12 14 0 11 -60 0 -79 -15 -9 -7 -8 -1 3 17 10 15 25 28 32 28 8 1 19 3 24 4
6 1 13 3 16 4 4 0 1 8 -6 16 -15 18 1 20 19 3 10 -9 12 -9 7 -1 -3 6 2 17 11
23 15 9 12 10 -16 6 -18 -3 -40 -6 -47 -6 -8 0 -11 -7 -8 -17 5 -15 4 -16 -5
-3 -9 13 -12 13 -20 1 -12 -18 -45 -6 -37 14 3 8 2 14 -2 14 -22 -4 -42 2 -37
11 3 6 -1 10 -9 10 -9 0 -16 5 -16 11 0 5 5 7 10 4 6 -3 10 -1 10 4 0 14 -17
14 -25 1 -8 -13 -45 -13 -45 0 0 6 3 9 8 8 15 -4 52 14 47 23 -4 5 1 12 9 15
11 4 13 11 7 22 -5 10 -5 26 -1 37 7 17 9 17 14 5 4 -9 15 -16 25 -17 14 -1
17 3 13 19 -3 11 1 24 9 29 11 7 11 9 1 9 -8 0 -16 -9 -19 -20 -6 -22 -23 -27
-23 -7 0 14 36 48 43 41 2 -2 10 2 17 11 11 14 14 13 27 -2 13 -16 13 -16 4 4
-14 29 -14 29 11 52 15 15 25 18 34 11 8 -7 13 -6 18 5 3 8 0 15 -6 15 -20 0
65 69 187 151 517 348 1213 450 1784 262 254 -84 433 -199 678 -436 l101 -98
419 307 c230 168 427 315 437 325 19 17 15 22 -150 187 -93 92 -207 199 -254
236 -551 439 -1234 633 -2060 585z m-1402 -1803 c-10 -7 -14 -17 -10 -21 4 -5
1 -5 -6 -1 -11 6 -10 12 5 26 10 9 20 15 23 13 3 -3 -3 -10 -12 -17z m122 -34
c0 -4 -9 -13 -20 -20 -11 -7 -20 -8 -20 -2 0 5 -7 7 -15 4 -8 -4 -15 -1 -15 6
0 6 4 9 8 6 4 -2 14 -1 22 5 18 11 40 12 40 1z m-163 -15 c0 -8 -6 -14 -14
-14 -9 0 -10 4 -2 14 6 7 12 13 14 13 1 0 2 -6 2 -13z m-7 -39 c0 -9 4 -8 10
2 9 13 10 13 10 0 0 -13 1 -13 11 0 8 12 10 12 7 1 -5 -17 -44 -25 -53 -10 -5
6 -12 6 -23 -3 -15 -12 -16 -11 -3 5 16 20 41 23 41 5z m100 8 c0 -2 -7 -7
-16 -10 -8 -3 -12 -2 -9 4 6 10 25 14 25 6z m63 -19 c3 -8 -4 -13 -22 -14 -14
0 -18 1 -8 4 9 2 17 9 17 14 0 13 7 11 13 -4z m-199 -32 c-4 -8 -10 -12 -15
-9 -5 3 -6 -2 -3 -10 3 -9 1 -16 -5 -16 -18 0 -12 38 7 43 9 3 18 5 19 6 1 0
0 -6 -3 -14z m216 -13 c0 -5 -7 -9 -15 -9 -8 0 -12 4 -9 9 3 4 9 8 15 8 5 0 9
-4 9 -8z m-127 -46 c-4 -6 -8 -17 -10 -25 -3 -22 -23 -38 -23 -18 0 9 4 17 9
17 5 0 8 11 7 24 -2 17 1 23 10 19 8 -3 11 -10 7 -17z m-103 4 c0 -5 -2 -10
-4 -10 -3 0 -8 5 -11 10 -3 6 -1 10 4 10 6 0 11 -4 11 -10z m644 -71 c-3 -5
-10 -7 -15 -3 -5 3 -7 10 -3 15 3 5 10 7 15 3 5 -3 7 -10 3 -15z m130 -25 c5
-14 4 -15 -9 -4 -17 14 -19 20 -6 20 5 0 12 -7 15 -16z m-14 -28 c0 -3 -4 -8
-10 -11 -5 -3 -10 -1 -10 4 0 6 5 11 10 11 6 0 10 -2 10 -4z m-650 -66 c0 -11
-4 -20 -10 -20 -5 0 -10 -7 -10 -15 0 -18 -16 -20 -26 -3 -4 6 -3 8 3 5 12 -7
27 20 24 41 -1 6 3 12 9 12 5 0 10 -9 10 -20z m37 -12 c1 -11 -3 -18 -9 -16
-15 5 -19 35 -4 35 7 0 13 -9 13 -19z m233 -9 c0 -5 4 -8 9 -5 5 4 16 3 25 0
15 -6 15 -8 -1 -19 -10 -8 -22 -10 -28 -5 -16 13 -46 -15 -39 -36 5 -16 4 -16
-8 1 -12 20 -55 24 -43 4 4 -5 1 -9 -4 -9 -15 0 -13 31 3 53 9 12 16 14 21 8
3 -6 1 -11 -5 -11 -6 0 -8 -5 -5 -10 4 -7 14 -6 28 2 15 8 18 13 8 16 -11 4
-11 6 0 13 19 12 39 11 39 -2z m-189 -36 c13 -16 12 -17 -3 -4 -17 13 -22 21
-14 21 2 0 10 -8 17 -17z m-81 -3 c0 -5 -5 -10 -11 -10 -5 0 -7 5 -4 10 3 6 8
10 11 10 2 0 4 -4 4 -10z m100 -40 c0 -5 -2 -10 -4 -10 -3 0 -8 5 -11 10 -3 6
-1 10 4 10 6 0 11 -4 11 -10z m34 -30 c-6 -6 -10 -3 -10 10 0 13 4 16 10 10 7
-7 7 -13 0 -20z m-34 -5 c0 -8 -4 -15 -10 -15 -5 0 -7 7 -4 15 4 8 8 15 10 15
2 0 4 -7 4 -15z m242 -12 c-6 -2 -9 -10 -6 -15 4 -7 2 -8 -5 -4 -13 9 -5 26
12 25 9 0 8 -2 -1 -6z m-312 -32 c2 -1 -1 -6 -7 -12 -13 -13 -47 -4 -39 10 4
5 14 8 24 6 9 -2 19 -4 22 -4z m-90 -27 c0 -9 -7 -14 -17 -12 -25 5 -28 28 -4
28 12 0 21 -6 21 -16z m150 -13 c7 -15 7 -22 -2 -27 -7 -4 -10 -4 -6 1 4 4 3
16 -3 26 -5 11 -7 19 -5 19 3 0 10 -9 16 -19z m-177 -32 c5 -3 2 -9 -5 -12 -9
-3 -14 3 -15 15 -1 11 1 16 5 12 4 -5 11 -12 15 -15z m75 -28 c3 -8 -1 -12 -9
-9 -7 2 -15 10 -17 17 -3 8 1 12 9 9 7 -2 15 -10 17 -17z m50 -26 c-3 -3 -9 2
-12 12 -6 14 -5 15 5 6 7 -7 10 -15 7 -18z m109 -21 c-3 -3 -12 -4 -19 -1 -8
3 -5 6 6 6 11 1 17 -2 13 -5z m-129 -39 c-3 -3 -9 2 -12 12 -6 14 -5 15 5 6 7
-7 10 -15 7 -18z m-78 -37 c0 -4 -11 -8 -25 -8 -14 0 -25 -5 -25 -12 0 -6 -2
-9 -5 -6 -3 2 0 19 6 37 11 31 12 31 30 15 11 -9 19 -21 19 -26z m212 0 c-19
-19 -22 -20 -22 -5 0 9 5 16 11 15 6 -2 14 3 17 11 3 9 0 11 -8 6 -9 -6 -11
-4 -5 4 5 9 10 10 18 2 8 -8 5 -17 -11 -33z m1914 9 c-3 -13 -8 -48 -12 -78
-7 -55 -21 -105 -29 -98 -2 2 0 22 5 44 5 22 14 66 20 98 6 31 14 57 17 57 3
0 3 -10 -1 -23z m-1957 -33 c-14 -13 -17 -13 -30 2 -8 10 -9 15 -4 12 6 -4 17
-3 25 2 21 13 26 2 9 -16z m-109 -16 c0 -13 -23 -5 -28 10 -2 7 2 10 12 6 9
-3 16 -11 16 -16z m106 -10 c4 4 2 -2 -6 -13 -21 -30 -24 -32 -17 -14 3 9 0
23 -6 30 -10 11 -9 11 4 1 9 -6 20 -8 25 -4z m98 -15 c4 -10 1 -11 -14 -3 -13
7 -21 7 -25 0 -4 -6 -11 -8 -16 -4 -15 9 -2 20 25 20 14 0 28 -6 30 -13z
m-202 -11 c-7 -2 -9 -9 -6 -14 4 -7 2 -8 -4 -4 -6 4 -9 13 -6 21 4 8 11 12 17
8 8 -5 7 -8 -1 -11z m238 -2 c0 -5 -2 -10 -4 -10 -3 0 -8 5 -11 10 -3 6 -1 10
4 10 6 0 11 -4 11 -10z m-450 -20 c0 -5 -2 -10 -4 -10 -3 0 -8 5 -11 10 -3 6
-1 10 4 10 6 0 11 -4 11 -10z m206 -21 c3 -6 2 -15 -4 -21 -6 -6 -12 -6 -16 1
-4 6 -1 11 6 11 9 0 9 3 -2 10 -9 6 -10 10 -3 10 6 0 15 -5 19 -11z m169 1
c-3 -5 -12 -10 -18 -10 -7 0 -6 4 3 10 19 12 23 12 15 0z m-254 -64 c-9 -11
-9 -15 1 -19 7 -2 10 -7 7 -11 -4 -4 -13 0 -22 8 -8 8 -18 12 -22 8 -10 -8 4
17 18 36 7 9 13 10 20 3 7 -7 6 -15 -2 -25z m399 24 c0 -5 -2 -10 -4 -10 -3 0
-8 5 -11 10 -3 6 -1 10 4 10 6 0 11 -4 11 -10z m-110 -23 c0 -7 -4 -6 -10 3
-8 12 -10 12 -10 1 0 -8 -3 -12 -6 -8 -9 9 6 28 17 22 5 -4 9 -12 9 -18z
m1805 -28 c-9 -17 -19 -29 -22 -26 -5 5 25 57 33 57 3 0 -3 -14 -11 -31z
m-1965 -28 c0 -5 -7 -12 -16 -15 -14 -5 -15 -4 -4 9 14 17 20 19 20 6z m1566
-2 c4 -6 10 -7 15 -2 11 11 69 5 69 -7 0 -4 -6 -13 -14 -20 -8 -6 -12 -18 -9
-26 3 -9 -2 -14 -15 -14 -11 0 -22 6 -25 13 -3 9 -9 8 -23 -4 -18 -15 -22 -15
-61 3 -43 19 -57 38 -28 38 9 0 18 7 21 15 7 17 59 20 70 4z m121 -5 c-3 -3
-12 -4 -19 -1 -8 3 -5 6 6 6 11 1 17 -2 13 -5z m-1412 -16 c5 4 5 2 1 -5 -8
-14 -36 -6 -36 9 0 7 5 6 13 -1 8 -6 18 -7 22 -3z m-421 -6 c2 -4 -4 -8 -14
-8 -10 0 -16 4 -14 8 3 4 9 8 14 8 5 0 11 -4 14 -8z m-50 -37 c-6 -16 -24 -21
-24 -7 0 11 11 22 21 22 5 0 6 -7 3 -15z m26 -9 c0 -3 -4 -8 -10 -11 -5 -3
-10 -1 -10 4 0 6 5 11 10 11 6 0 10 -2 10 -4z m337 -11 c0 -8 -4 -15 -9 -15
-10 0 -11 14 -1 23 9 10 10 9 10 -8z m-563 -23 c3 -5 -1 -9 -9 -9 -8 0 -15 4
-15 9 0 4 4 8 9 8 6 0 12 -4 15 -8z m366 -12 c0 -5 -2 -10 -4 -10 -3 0 -8 5
-11 10 -3 6 -1 10 4 10 6 0 11 -4 11 -10z m-250 -10 c0 -5 -4 -10 -10 -10 -5
0 -10 5 -10 10 0 6 5 10 10 10 6 0 10 -4 10 -10z m65 0 c11 -17 -5 -32 -21
-19 -7 6 -11 15 -8 20 7 12 21 11 29 -1z m1789 -15 c-3 -8 -12 -11 -20 -8 -15
5 -18 16 -8 26 11 10 33 -4 28 -18z m-1539 -3 c-3 -3 -11 0 -18 7 -9 10 -8 11
6 5 10 -3 15 -9 12 -12z m161 -17 c-3 -14 0 -25 5 -25 5 0 9 7 7 16 -2 10 5
18 15 19 19 4 24 -11 6 -17 -7 -2 -13 -17 -14 -33 -1 -17 -3 -40 -3 -53 -1
-16 -6 -21 -14 -16 -10 6 -10 5 -1 -7 8 -11 8 -21 -2 -44 -13 -29 -13 -29 -14
-5 -2 74 -1 104 4 120 3 10 1 21 -5 25 -7 4 -7 12 0 26 15 26 21 24 16 -6z
m196 -45 c7 -1 0 -8 -15 -16 -28 -15 -28 -16 -10 -37 12 -15 13 -18 2 -9 -9 6
-19 9 -22 5 -4 -3 -7 8 -7 26 0 29 2 32 23 25 l22 -7 -23 19 c-16 13 -21 25
-16 38 6 15 9 14 20 -13 7 -17 19 -31 26 -31z m1538 4 c0 -3 -4 -2 -10 1 -5 3
-19 1 -31 -5 -19 -11 -20 -10 -9 9 9 17 15 19 30 11 11 -6 20 -13 20 -16z
m-2045 -12 c-3 -3 -11 0 -18 7 -9 10 -8 11 6 5 10 -3 15 -9 12 -12z m42 3 c0
-8 -4 -12 -9 -9 -4 3 -8 -2 -8 -10 0 -9 8 -16 17 -16 15 0 14 -2 -3 -16 -16
-13 -16 -15 -1 -10 9 3 17 1 17 -4 0 -6 -7 -10 -16 -10 -9 0 -12 -5 -8 -12 5
-8 0 -7 -11 2 -17 14 -18 13 -12 -2 3 -10 2 -18 -3 -18 -6 0 -10 5 -10 10 0 6
-8 10 -17 11 -11 0 -13 3 -5 6 6 2 10 8 7 13 -3 4 3 6 14 3 20 -5 42 18 23 25
-16 5 -15 18 4 36 19 20 21 20 21 1z m1473 -5 c0 -5 -5 -10 -11 -10 -5 0 -7 5
-4 10 3 6 8 10 11 10 2 0 4 -4 4 -10z m581 -17 c13 -16 12 -17 -3 -4 -17 13
-22 21 -14 21 2 0 10 -8 17 -17z m-2098 -17 c4 -10 0 -12 -14 -9 -10 3 -16 9
-13 14 8 13 21 11 27 -5z m92 4 c-3 -5 -11 -10 -16 -10 -6 0 -7 5 -4 10 3 6
11 10 16 10 6 0 7 -4 4 -10z m1825 -16 c0 -8 7 -17 15 -20 8 -4 15 -13 15 -21
0 -8 -5 -11 -10 -8 -6 4 -16 2 -23 -3 -9 -8 -12 1 -13 34 -1 24 2 41 7 38 5
-3 9 -12 9 -20z m-1809 2 c-9 -11 -9 -15 1 -19 7 -2 1 -4 -14 -4 -34 -1 -36 8
-5 23 31 16 31 16 18 0z m157 -11 c-3 -3 -9 2 -12 12 -6 14 -5 15 5 6 7 -7 10
-15 7 -18z m1888 -7 l29 -33 -32 29 c-31 28 -38 36 -30 36 2 0 16 -15 33 -32z
m-855 -34 c49 -31 89 -61 89 -65 0 -5 20 -19 45 -31 l45 -22 0 -226 0 -226
-29 -55 c-42 -76 -81 -203 -81 -258 1 -50 9 -93 34 -185 11 -44 13 -63 5 -72
-6 -8 -9 -20 -6 -28 3 -8 2 -16 -3 -18 -13 -4 -44 -163 -36 -183 3 -10 11 -13
18 -9 10 6 11 4 1 -7 -19 -20 -16 -31 7 -24 12 4 20 2 20 -5 0 -6 -4 -9 -9 -6
-9 6 -21 -26 -21 -57 0 -17 1 -17 16 -2 9 9 22 14 30 11 7 -3 15 0 18 7 3 9 5
8 5 -1 2 -22 -46 -62 -65 -55 -12 4 -10 -1 7 -21 13 -15 25 -22 27 -17 2 6 9
8 14 5 7 -4 8 -2 4 4 -4 7 -15 12 -24 13 -14 0 -13 2 3 8 12 5 23 4 27 -3 5
-8 8 -7 8 2 0 10 4 9 16 -2 8 -9 21 -13 27 -10 9 5 8 3 0 -6 -9 -10 -15 -10
-26 -1 -12 9 -16 8 -20 -8 -5 -20 -21 -22 -45 -7 -8 5 -18 4 -25 -3 -8 -8 -6
-11 9 -12 10 0 13 -3 7 -6 -8 -3 -11 -14 -7 -29 6 -25 -5 -34 -49 -39 -12 -1
-25 -3 -29 -4 -4 0 -4 -11 1 -23 6 -17 3 -26 -15 -40 -12 -10 -26 -18 -31 -18
-5 0 -19 -9 -31 -20 l-22 -21 -1 33 c-1 18 -4 60 -6 93 -2 33 -4 89 -5 125 -2
37 -8 71 -16 79 -8 8 -9 17 -4 25 9 10 21 48 28 88 2 10 -2 17 -9 15 -6 -1
-11 6 -11 15 1 10 -3 15 -9 11 -6 -4 -8 4 -5 21 5 26 -5 35 -17 16 -3 -5 -12
-10 -18 -10 -7 0 -6 4 3 10 12 8 12 10 1 10 -11 0 -11 3 0 17 8 9 9 14 2 10
-6 -4 -15 4 -21 21 -6 15 -20 38 -31 52 -17 20 -23 22 -30 11 -12 -18 -3 -40
26 -68 12 -12 19 -25 13 -28 -12 -7 -50 30 -50 49 0 9 -9 14 -20 13 -11 -1
-20 -5 -20 -9 0 -24 -34 -2 -60 39 -34 54 -37 73 -12 73 13 0 14 2 3 9 -16 10
-6 51 12 47 7 -1 9 -1 5 1 -5 3 -8 11 -8 19 0 9 4 13 9 9 5 -3 13 0 17 6 5 8
3 9 -5 4 -9 -5 -12 -2 -9 11 2 11 10 18 16 17 7 -2 12 2 12 7 0 6 -4 10 -8 10
-5 0 -9 7 -9 15 0 8 4 15 9 15 4 0 8 12 8 26 0 16 4 23 12 18 7 -5 8 -3 3 5
-12 20 -29 -5 -49 -69 -21 -69 -35 -94 -37 -65 -1 11 -1 23 0 28 0 4 -4 7 -10
7 -6 0 -8 7 -5 16 3 8 2 12 -4 9 -5 -3 -15 -1 -22 5 -7 6 -22 17 -33 25 -11 7
-16 17 -12 21 4 5 12 3 16 -5 6 -10 10 -9 15 4 6 18 -3 30 -48 59 -23 14 -26
20 -15 28 10 7 8 8 -7 3 -13 -3 -31 2 -47 15 -14 11 -30 20 -36 20 -6 0 -11 5
-11 10 0 6 8 10 18 10 13 0 14 2 3 9 -11 7 -11 10 0 17 8 4 20 9 29 10 8 1 23
5 33 9 10 4 17 3 17 -4 0 -7 -7 -14 -15 -17 -8 -4 -12 -11 -9 -16 4 -7 10 -4
16 6 6 11 14 14 26 7 9 -4 23 -6 30 -4 6 3 12 0 12 -7 0 -6 5 -8 10 -5 6 3 10
-1 10 -10 0 -10 -5 -13 -12 -9 -8 4 -10 3 -5 -2 5 -5 13 -10 18 -10 5 -1 12
-2 15 -3 4 0 1 -8 -6 -16 -11 -13 -10 -14 4 -9 9 3 16 1 16 -6 0 -6 5 -8 10
-5 6 4 8 12 4 18 -3 7 1 4 9 -5 8 -10 23 -19 35 -21 11 -2 27 -9 35 -15 10 -9
17 -10 22 -2 3 5 1 10 -6 10 -8 0 -8 4 1 15 12 14 7 19 -13 16 -5 -1 -11 8
-14 19 -3 11 -9 17 -14 14 -5 -3 -9 0 -9 5 0 6 7 11 15 11 8 0 15 -5 15 -11 0
-5 5 -7 10 -4 6 3 10 -1 10 -9 0 -9 5 -16 10 -16 6 0 10 -8 8 -17 -2 -10 11
-26 31 -40 37 -25 56 -30 45 -11 -5 8 -2 9 9 5 14 -5 15 -2 5 21 -7 15 -18 32
-25 38 -7 6 -10 14 -6 17 3 4 -5 7 -18 7 -19 0 -21 2 -9 10 8 5 12 10 8 11 -8
1 -19 4 -35 8 -5 2 1 6 12 11 18 8 18 9 -5 10 -14 1 -19 4 -12 7 8 3 0 11 -20
22 -23 11 -32 22 -30 36 3 20 2 20 -13 1 -13 -17 -15 -18 -15 -3 0 9 -6 17
-12 17 -23 0 -39 16 -32 33 9 24 34 21 99 -13 31 -16 70 -30 86 -30 43 0 76
37 84 96 4 27 17 59 28 72 11 12 17 22 12 22 -5 0 2 11 15 25 31 32 17 46 -15
15 l-25 -23 0 30 c0 22 7 36 26 48 20 13 24 22 20 43 -3 15 -7 50 -8 79 -1 62
-5 69 -41 82 -28 11 -37 36 -14 44 9 3 9 8 -2 21 -12 15 -12 19 -1 26 12 7 16
25 19 83 1 9 4 17 7 17 4 0 46 -25 95 -56z m-782 -31 c1 -13 10 -28 21 -35 25
-16 26 -38 3 -39 -17 -1 -17 -2 0 -6 9 -2 14 -9 11 -15 -4 -7 -2 -8 5 -4 6 4
9 12 6 17 -4 5 -2 9 4 9 16 0 26 -23 12 -28 -11 -4 -11 -6 0 -14 11 -7 11 -11
1 -15 -6 -2 -9 -9 -6 -14 3 -6 1 -16 -6 -24 -9 -11 -7 -12 8 -8 11 2 23 0 26
-5 8 -13 -3 -42 -16 -42 -5 0 -7 4 -4 9 6 9 -22 26 -36 23 -4 -1 -5 5 -2 13 4
8 -1 17 -10 21 -9 3 -14 10 -11 14 3 5 1 11 -5 15 -6 4 -7 11 -4 17 4 7 2 8
-5 4 -6 -4 -23 0 -37 9 -56 37 -83 79 -46 73 37 -6 57 26 22 35 -27 7 -25 27
3 27 12 0 29 5 37 10 17 10 28 -8 29 -47z m1484 27 c-4 -16 -9 -18 -24 -9 -22
12 -26 24 -4 16 8 -4 17 -2 20 3 10 16 13 11 8 -10z m130 -6 c1 -10 6 -25 10
-31 5 -9 3 -11 -6 -7 -8 3 -14 19 -15 36 -1 32 6 34 11 2z m-2143 5 c0 -5 -4
-7 -10 -4 -5 3 -10 1 -10 -6 0 -7 -3 -10 -6 -6 -8 7 4 27 17 27 5 0 9 -5 9
-11z m2040 -19 c0 -5 -2 -10 -4 -10 -3 0 -8 5 -11 10 -3 6 -1 10 4 10 6 0 11
-4 11 -10z m108 -53 c3 -17 1 -17 -31 -3 -20 8 -39 11 -43 8 -4 -4 -5 -2 -2 3
4 6 21 10 39 10 25 0 35 -5 37 -18z m-598 -84 c14 -9 26 -17 28 -19 2 -1 10
-28 18 -60 14 -50 14 -61 1 -88 -8 -17 -27 -60 -43 -96 -15 -36 -31 -68 -34
-72 -3 -4 -6 74 -7 173 -2 98 1 179 5 179 4 0 19 -8 32 -17z m-313 -19 c-9 -9
-28 6 -21 18 4 6 10 6 17 -1 6 -6 8 -13 4 -17z m892 -81 c0 -16 -3 -22 -6 -13
-3 8 -10 21 -16 28 -7 8 -5 12 7 12 11 0 16 -8 15 -27z m-1469 -33 c0 -5 -2
-10 -4 -10 -3 0 -8 5 -11 10 -3 6 -1 10 4 10 6 0 11 -4 11 -10z m1470 -100 c0
-5 -4 -10 -10 -10 -5 0 -10 5 -10 10 0 6 5 10 10 10 6 0 10 -4 10 -10z m-66
-44 c-6 -15 -24 -23 -24 -11 0 8 24 34 28 30 1 -1 0 -10 -4 -19z m-4 -62 c0
-8 -4 -12 -10 -9 -5 3 -10 10 -10 16 0 5 5 9 10 9 6 0 10 -7 10 -16z m40 -29
c0 -8 -4 -17 -10 -20 -6 -3 -9 4 -8 19 2 25 18 26 18 1z m-55 -34 c-3 -12 -11
-21 -16 -21 -14 0 -11 38 4 43 17 6 20 2 12 -22z m-1045 -141 c0 -5 -5 -10
-11 -10 -5 0 -7 5 -4 10 3 6 8 10 11 10 2 0 4 -4 4 -10z m-50 -40 c0 -5 -2
-10 -4 -10 -3 0 -8 5 -11 10 -3 6 -1 10 4 10 6 0 11 -4 11 -10z m-179 -110
c-2 -3 1 -16 9 -30 7 -14 9 -22 5 -18 -4 4 -17 3 -29 -3 -21 -10 -21 -10 -1 6
20 16 20 16 -5 37 l-25 20 25 -3 c14 -2 23 -6 21 -9z m49 -19 c0 -6 -4 -13
-10 -16 -5 -3 -10 1 -10 9 0 9 5 16 10 16 6 0 10 -4 10 -9z m590 -11 c0 -5 -5
-10 -11 -10 -5 0 -7 5 -4 10 3 6 8 10 11 10 2 0 4 -4 4 -10z m140 -160 c0 -5
-2 -10 -4 -10 -3 0 -8 5 -11 10 -3 6 -1 10 4 10 6 0 11 -4 11 -10z m38 -40 c3
-9 -1 -11 -11 -7 -9 3 -17 1 -19 -4 -2 -6 -11 -7 -20 -4 -9 4 -14 13 -11 21 7
18 55 13 61 -6z m-113 -8 c-3 -3 -11 0 -18 7 -9 10 -8 11 6 5 10 -3 15 -9 12
-12z m6 -61 c1 -9 1 -19 0 -23 0 -5 6 -8 15 -8 14 0 14 3 4 15 -14 17 -8 31 9
20 6 -3 9 -11 6 -16 -4 -5 -2 -9 3 -9 12 0 11 -34 -2 -42 -16 -11 -56 -10 -56
2 0 5 -7 7 -15 4 -17 -7 -20 13 -5 36 9 13 11 13 20 0 8 -12 10 -11 7 5 -1 11
-6 26 -10 32 -6 9 -3 11 7 7 9 -3 17 -14 17 -23z m-542 -41 c-1 -3 3 -16 10
-29 12 -21 11 -23 -3 -18 -10 4 -15 3 -11 -3 3 -6 1 -10 -4 -10 -14 0 -14 17
0 26 8 5 6 10 -5 16 -17 9 -12 32 6 26 5 -2 8 -6 7 -8z m188 -53 c-5 -17 -37
-21 -37 -5 0 8 9 14 21 15 12 1 19 -3 16 -10z m343 -2 c0 -8 -4 -15 -10 -15
-5 0 -7 7 -4 15 4 8 8 15 10 15 2 0 4 -7 4 -15z m-507 -19 c3 -7 0 -19 -6 -26
-9 -10 -9 -11 0 -6 15 8 20 0 27 -49 7 -43 24 -75 63 -117 14 -14 22 -31 19
-36 -3 -6 2 -8 13 -5 19 5 34 -21 34 -60 0 -14 2 -15 15 -5 13 11 14 10 7 -11
-4 -15 -3 -21 3 -17 5 3 12 -3 15 -14 3 -13 -1 -21 -14 -25 -26 -9 -24 -23 6
-31 20 -5 24 -12 23 -40 -1 -20 -6 -33 -12 -31 -6 2 -10 11 -8 19 1 8 -13 22
-33 31 -20 9 -39 25 -42 34 -4 10 -13 24 -20 31 -7 8 -11 17 -8 22 3 5 1 11
-5 15 -5 3 -10 1 -10 -5 0 -6 -5 -8 -10 -5 -6 4 -8 10 -5 15 3 4 -3 7 -13 6
-10 0 -16 6 -16 17 2 19 -12 23 -18 5 -3 -7 -10 -8 -17 -4 -11 7 -11 10 0 17
10 6 6 8 -11 7 -16 -2 -24 2 -22 10 2 10 -2 10 -17 2 -16 -8 -22 -6 -31 10 -9
17 -8 21 2 19 7 -1 21 -1 32 0 15 1 16 4 6 16 -7 8 -18 15 -24 15 -6 0 -4 -5
4 -10 12 -8 11 -10 -8 -10 -12 0 -25 -7 -28 -15 -4 -8 -11 -15 -17 -15 -7 0
-7 4 1 12 7 7 12 19 12 28 0 22 66 38 108 26 24 -7 36 -6 45 4 7 7 7 10 1 7
-6 -4 -20 3 -32 13 -12 11 -25 20 -30 20 -5 0 -15 7 -23 16 -10 13 -10 20 5
45 9 16 12 29 7 29 -6 0 -11 5 -11 11 0 5 5 7 10 4 6 -3 10 -1 10 4 0 6 -7 11
-15 11 -8 0 -15 -5 -15 -11 0 -5 -4 -7 -10 -4 -5 3 -10 11 -10 16 0 6 5 7 10
4 6 -3 10 -1 10 5 0 6 4 9 9 5 5 -3 12 -1 16 5 9 14 22 12 28 -4z m647 -14 c0
-5 -7 -9 -15 -9 -8 0 -12 4 -9 9 3 4 9 8 15 8 5 0 9 -4 9 -8z m-46 -15 c3 3 6
1 6 -6 0 -8 -6 -11 -16 -7 -9 3 -20 6 -25 6 -5 0 -9 5 -9 10 0 7 6 7 19 1 10
-6 21 -7 25 -4z m-490 -23 c3 -8 2 -12 -4 -9 -6 3 -10 10 -10 16 0 14 7 11 14
-7z m493 -115 c-4 -16 -3 -18 8 -9 18 15 29 -18 13 -38 -11 -13 -10 -15 3 -10
9 4 16 1 16 -6 0 -9 -9 -9 -34 -2 -18 6 -33 15 -33 20 0 6 -6 2 -13 -9 -11
-14 -16 -15 -22 -5 -5 8 -4 11 2 7 6 -4 14 0 17 9 5 14 9 14 23 3 14 -12 16
-12 11 1 -3 8 -14 15 -26 15 -12 0 -22 3 -22 8 0 4 0 11 0 16 0 5 12 12 28 14
15 2 29 5 31 6 2 0 1 -8 -2 -20z m-102 2 c3 -6 -3 -9 -14 -8 -11 0 -17 5 -15
9 7 11 22 10 29 -1z m-45 -15 c0 -3 -4 -8 -10 -11 -5 -3 -10 -1 -10 4 0 6 5
11 10 11 6 0 10 -2 10 -4z m75 -16 c3 -5 2 -10 -4 -10 -5 0 -13 5 -16 10 -3 6
-2 10 4 10 5 0 13 -4 16 -10z m-5 -30 c0 -5 -2 -10 -4 -10 -3 0 -8 5 -11 10
-3 6 -1 10 4 10 6 0 11 -4 11 -10z m77 -26 c-3 -3 -12 -4 -19 -1 -8 3 -5 6 6
6 11 1 17 -2 13 -5z m-39 -44 c-7 -10 -14 -18 -15 -16 -6 6 9 36 18 36 5 0 4
-9 -3 -20z m72 -1 c0 -5 -4 -9 -10 -9 -5 0 -10 7 -10 16 0 8 5 12 10 9 6 -3
10 -10 10 -16z m-40 -13 c0 -2 -7 -7 -16 -10 -8 -3 -12 -2 -9 4 6 10 25 14 25
6z m-79 -115 c6 10 9 7 9 -10 0 -20 -2 -21 -15 -11 -8 7 -15 18 -14 24 0 6 3
5 6 -3 5 -11 7 -11 14 0z m70 -244 c1 -78 4 -185 8 -239 5 -85 4 -95 -10 -88
-17 10 -27 4 -49 -25 -8 -11 -10 -17 -5 -12 12 10 65 -42 58 -59 -11 -28 -93
27 -93 63 0 9 5 11 13 7 9 -6 9 -5 0 8 -7 8 -10 18 -6 21 3 4 -2 10 -11 13
-12 5 -14 9 -6 14 7 5 3 15 -14 31 -14 13 -26 27 -26 31 0 11 43 -1 52 -14 4
-7 8 -9 8 -4 0 5 7 3 15 -4 16 -13 16 -40 2 -51 -13 -9 18 -18 32 -9 10 5 7
17 -13 48 -30 47 -71 78 -99 74 -15 -3 -17 0 -8 16 6 11 7 22 4 26 -3 3 -1 6
5 6 6 0 16 -8 21 -17 6 -10 11 -13 11 -7 0 6 -7 17 -15 24 -8 7 -12 16 -9 21
3 5 -2 6 -10 3 -16 -6 -40 29 -28 41 4 4 0 6 -8 5 -29 -4 -42 0 -37 13 3 8 -1
14 -9 14 -8 0 -14 -4 -14 -9 0 -5 -5 -6 -12 -2 -7 4 -8 3 -4 -4 4 -7 2 -12 -4
-12 -6 0 -8 -5 -4 -11 4 -8 9 -7 15 2 8 12 10 12 18 0 11 -17 3 -43 -10 -35
-5 3 -9 -4 -9 -15 0 -21 0 -21 -45 1 -42 20 -58 38 -35 38 5 0 17 16 26 35 16
34 37 45 49 25 3 -5 12 -7 21 -3 13 5 13 8 -1 30 -24 35 -11 40 40 15 96 -46
148 -20 168 86 6 33 15 58 19 56 4 -3 8 -69 9 -147z m-471 133 c0 -5 -5 -10
-11 -10 -5 0 -7 5 -4 10 3 6 8 10 11 10 2 0 4 -4 4 -10z m165 -321 c11 -17 83
-49 99 -43 16 6 41 -30 31 -46 -3 -6 2 -10 12 -10 10 0 25 -5 33 -10 13 -8 13
-12 1 -32 -13 -21 -13 -22 2 -9 15 12 17 10 17 -25 0 -20 5 -52 11 -69 10 -26
9 -42 -5 -87 -20 -61 -10 -58 -123 -37 -40 8 -53 15 -52 27 0 11 2 12 6 5 2
-7 12 -13 21 -12 12 0 13 2 3 6 -11 5 -11 7 0 15 11 8 11 9 -1 5 -9 -2 -31 3
-50 13 -19 10 -54 28 -78 39 -24 11 -41 25 -37 31 3 5 1 10 -5 10 -6 0 -9 4
-6 8 3 5 -4 15 -16 23 -11 8 -26 19 -32 25 -6 6 -17 9 -24 6 -7 -2 -20 2 -28
9 -13 10 -17 10 -24 0 -4 -8 -13 -10 -20 -6 -9 6 -9 9 0 15 9 5 9 13 2 26 -8
15 -4 26 19 52 31 35 84 48 58 15 -12 -16 -12 -17 2 -6 12 10 18 10 29 0 8 -6
7 -3 -3 9 -18 21 -14 34 11 34 8 0 12 -6 9 -15 -4 -8 -2 -17 2 -19 5 -3 7 5 6
17 -1 14 11 33 34 53 l36 32 27 -20 c15 -10 30 -23 33 -29z m125 4 c0 -13 -3
-13 -15 -3 -8 7 -12 16 -9 21 8 13 24 1 24 -18z m190 -339 c0 -35 -4 -64 -10
-64 -5 0 -7 8 -3 18 5 16 5 16 -8 0 -11 -14 -23 -16 -51 -12 -21 4 -35 11 -32
15 3 5 10 6 16 3 7 -5 7 -1 1 11 -11 19 4 75 20 75 4 0 6 4 3 8 -2 4 11 8 30
9 l34 1 0 -64z m-315 -14 c3 -6 -1 -7 -9 -4 -18 7 -21 14 -7 14 6 0 13 -4 16
-10z"/>
<path d="M2595 5330 c3 -5 8 -10 11 -10 2 0 4 5 4 10 0 6 -5 10 -11 10 -5 0
-7 -4 -4 -10z"/>
<path d="M3270 3772 c0 -5 11 -14 25 -20 29 -14 34 2 6 18 -24 12 -31 13 -31
2z"/>
<path d="M3403 3545 c0 -8 4 -15 9 -15 4 0 8 4 8 9 0 6 -4 12 -8 15 -5 3 -9
-1 -9 -9z"/>
<path d="M3402 3506 c10 -7 14 -17 10 -21 -4 -5 -2 -5 5 -1 16 9 5 36 -16 36
-14 -1 -14 -2 1 -14z"/>
<path d="M3350 3500 c0 -5 5 -10 10 -10 6 0 10 5 10 10 0 6 -4 10 -10 10 -5 0
-10 -4 -10 -10z"/>
<path d="M3200 3489 c0 -5 5 -7 10 -4 6 3 10 8 10 11 0 2 -4 4 -10 4 -5 0 -10
-5 -10 -11z"/>
<path d="M3431 3454 c0 -11 3 -14 6 -6 3 7 2 16 -1 19 -3 4 -6 -2 -5 -13z"/>
<path d="M3349 3428 c-5 -18 -6 -38 -1 -34 7 8 12 36 6 36 -2 0 -4 -1 -5 -2z"/>
<path d="M3420 3393 c0 -33 3 -38 24 -39 22 -2 23 0 13 37 -13 51 -37 52 -37
2z m30 -13 c0 -5 -2 -10 -4 -10 -3 0 -8 5 -11 10 -3 6 -1 10 4 10 6 0 11 -4
11 -10z"/>
<path d="M3384 3399 c-7 -12 17 -32 26 -22 3 3 -1 8 -8 10 -6 3 -10 9 -6 14 3
5 3 9 0 9 -3 0 -8 -5 -12 -11z"/>
<path d="M3375 3360 c3 -5 14 -10 23 -10 15 0 15 2 2 10 -20 13 -33 13 -25 0z"/>
<path d="M3397 3333 c-4 -3 -7 -11 -7 -17 0 -6 4 -5 9 2 7 11 9 10 14 -3 4 -9
3 -14 -2 -11 -4 3 -17 -1 -27 -9 -16 -13 -17 -14 -1 -9 11 4 17 1 17 -8 0 -20
20 -37 36 -31 21 8 17 22 -5 18 -17 -3 -19 0 -12 18 13 37 -2 71 -22 50z"/>
<path d="M3215 3310 c-3 -5 -2 -10 4 -10 5 0 13 5 16 10 3 6 2 10 -4 10 -5 0
-13 -4 -16 -10z"/>
<path d="M3463 3288 c1 -15 6 -30 10 -34 11 -11 8 29 -3 46 -8 12 -10 9 -7
-12z"/>
<path d="M3258 3263 c7 -3 16 -2 19 1 4 3 -2 6 -13 5 -11 0 -14 -3 -6 -6z"/>
<path d="M3491 3194 c0 -11 3 -14 6 -6 3 7 2 16 -1 19 -3 4 -6 -2 -5 -13z"/>
<path d="M3518 3023 c14 -6 16 -29 2 -38 -6 -4 -7 1 -3 12 6 15 4 16 -9 5 -17
-14 -18 -28 -4 -51 7 -11 12 -9 22 10 19 35 18 69 -3 68 -11 0 -13 -3 -5 -6z"/>
<path d="M2750 4350 c0 -5 5 -10 11 -10 5 0 7 5 4 10 -3 6 -8 10 -11 10 -2 0
-4 -4 -4 -10z"/>
<path d="M3308 2833 c7 -3 16 -2 19 1 4 3 -2 6 -13 5 -11 0 -14 -3 -6 -6z"/>
<path d="M3530 2356 c0 -8 5 -18 10 -21 6 -3 10 1 10 9 0 8 -4 18 -10 21 -5 3
-10 -1 -10 -9z"/>
<path d="M3700 2326 c0 -2 7 -9 15 -16 9 -7 15 -8 15 -2 0 5 -7 12 -15 16 -8
3 -15 4 -15 2z"/>
<path d="M3300 2191 c0 -6 4 -12 8 -15 5 -3 9 1 9 9 0 8 -4 15 -9 15 -4 0 -8
-4 -8 -9z"/>
<path d="M3633 2095 c0 -8 4 -12 9 -9 5 3 6 10 3 15 -9 13 -12 11 -12 -6z"/>
<path d="M3520 2026 c0 -2 7 -7 16 -10 8 -3 12 -2 9 4 -6 10 -25 14 -25 6z"/>
<path d="M3795 1970 c3 -5 8 -10 11 -10 2 0 4 5 4 10 0 6 -5 10 -11 10 -5 0
-7 -4 -4 -10z"/>
<path d="M3075 6080 c-3 -5 -1 -10 4 -10 6 0 11 5 11 10 0 6 -2 10 -4 10 -3 0
-8 -4 -11 -10z"/>
<path d="M2620 6030 c0 -5 5 -10 11 -10 5 0 7 5 4 10 -3 6 -8 10 -11 10 -2 0
-4 -4 -4 -10z"/>
<path d="M2826 5982 c-3 -5 1 -9 9 -9 8 0 12 4 9 9 -3 4 -7 8 -9 8 -2 0 -6 -4
-9 -8z"/>
<path d="M3155 5920 c-3 -5 -1 -10 4 -10 6 0 11 5 11 10 0 6 -2 10 -4 10 -3 0
-8 -4 -11 -10z"/>
<path d="M2570 5910 c0 -6 7 -10 15 -10 8 0 15 2 15 4 0 2 -7 6 -15 10 -8 3
-15 1 -15 -4z"/>
<path d="M2771 5914 c-1 -18 26 -37 34 -24 3 5 0 10 -9 10 -8 0 -17 6 -19 13
-4 7 -6 8 -6 1z"/>
<path d="M2504 5874 c9 -6 14 -14 11 -17 -3 -4 -2 -5 2 -2 16 12 10 34 -9 32
-17 -1 -17 -3 -4 -13z"/>
<path d="M2570 5875 c6 -7 9 -14 7 -16 -1 -2 3 1 9 8 8 10 15 9 32 -3 24 -16
30 -10 10 9 -17 16 -71 17 -58 2z"/>
<path d="M3190 5840 c13 -23 20 -26 20 -6 0 8 -7 16 -15 20 -13 4 -14 2 -5
-14z"/>
<path d="M2442 5834 c16 -16 16 -18 0 -30 -16 -12 -16 -13 2 -14 14 0 16 -3 7
-14 -12 -14 -5 -46 10 -46 5 0 9 12 9 26 0 14 4 23 8 20 4 -2 14 -1 22 4 13 8
12 12 -4 27 -16 14 -17 14 -7 1 13 -17 2 -31 -15 -20 -14 9 -14 42 -1 42 18 0
-3 14 -26 17 -21 3 -21 3 -5 -13z"/>
<path d="M2600 5846 c0 -2 7 -9 15 -16 9 -7 15 -8 15 -2 0 5 -7 12 -15 16 -8
3 -15 4 -15 2z"/>
<path d="M2731 5824 c0 -11 3 -14 6 -6 3 7 2 16 -1 19 -3 4 -6 -2 -5 -13z"/>
<path d="M2586 5817 c3 -10 9 -15 12 -12 3 3 0 11 -7 18 -10 9 -11 8 -5 -6z"/>
<path d="M3210 5807 c0 -13 59 -125 70 -132 15 -9 12 1 -14 53 -26 50 -55 92
-56 79z"/>
<path d="M2570 5790 c0 -6 7 -10 15 -10 8 0 15 2 15 4 0 2 -7 6 -15 10 -8 3
-15 1 -15 -4z"/>
<path d="M2552 5760 c0 -14 2 -19 5 -12 2 6 2 18 0 25 -3 6 -5 1 -5 -13z"/>
<path d="M2665 5770 c-19 -8 -19 -9 3 -9 12 -1 22 4 22 9 0 6 -1 10 -2 9 -2 0
-12 -4 -23 -9z"/>
<path d="M2765 5750 c-3 -5 -1 -10 4 -10 6 0 11 5 11 10 0 6 -2 10 -4 10 -3 0
-8 -4 -11 -10z"/>
<path d="M2493 5709 c-2 -23 3 -25 10 -4 4 8 3 16 -1 19 -4 3 -9 -4 -9 -15z"/>
<path d="M2685 5699 c-4 -6 -5 -12 -2 -15 2 -3 7 2 10 11 7 17 1 20 -8 4z"/>
<path d="M2830 5703 c1 -11 50 -46 50 -36 0 9 -36 43 -45 43 -3 0 -5 -3 -5 -7z"/>
<path d="M2912 5670 c0 -14 2 -19 5 -12 2 6 2 18 0 25 -3 6 -5 1 -5 -13z"/>
<path d="M3055 5680 c-3 -5 -1 -10 4 -10 6 0 11 5 11 10 0 6 -2 10 -4 10 -3 0
-8 -4 -11 -10z"/>
<path d="M2810 5653 c0 -5 11 -8 25 -8 14 0 25 3 25 8 0 4 -11 7 -25 7 -14 0
-25 -3 -25 -7z"/>
<path d="M2866 5594 c-5 -13 -9 -15 -18 -6 -17 17 -33 15 -18 -3 10 -12 10
-15 -1 -15 -8 0 3 -11 23 -25 43 -29 44 -30 52 -10 6 18 -2 45 -15 45 -14 0
-11 -28 4 -33 7 -4 6 -6 -5 -6 -21 -1 -28 18 -16 42 5 10 8 21 5 23 -2 3 -7
-3 -11 -12z"/>
<path d="M2975 5600 c-16 -7 -17 -9 -3 -9 9 -1 20 4 23 9 7 11 7 11 -20 0z"/>
<path d="M2640 5586 c0 -18 30 -30 44 -16 7 7 3 10 -13 10 -12 0 -19 4 -16 10
3 6 1 10 -4 10 -6 0 -11 -6 -11 -14z"/>
<path d="M2701 5572 c-1 -15 -3 -32 -4 -39 0 -7 -4 -10 -9 -7 -5 3 -6 10 -3
15 4 5 2 9 -4 9 -5 0 -12 -6 -14 -12 -4 -10 -6 -10 -6 0 -1 6 -10 12 -22 12
-12 0 -17 4 -14 11 4 6 -2 5 -14 -3 -25 -16 -26 -21 -4 -39 11 -10 14 -10 9
-1 -4 6 -2 12 3 12 20 0 11 -20 -11 -30 -19 -7 -20 -9 -4 -9 11 -1 16 -6 13
-15 -4 -10 0 -12 14 -9 11 3 19 0 19 -6 0 -7 -4 -9 -10 -6 -14 9 -12 -11 3
-23 15 -13 52 11 42 27 -3 6 -2 11 4 11 5 0 11 -8 13 -17 2 -9 12 -17 24 -18
16 -1 20 3 16 17 -2 10 -9 18 -16 18 -6 0 -4 5 4 10 13 8 12 11 -5 24 -19 15
-19 15 5 11 24 -4 24 -4 5 11 -12 9 -19 24 -17 38 2 13 -1 26 -5 29 -5 3 -10
-6 -12 -21z m8 -78 c14 -12 -19 -1 -35 12 -18 14 -18 14 6 3 14 -6 27 -13 29
-15z m-43 -6 c3 -4 -1 -5 -10 -4 -8 1 -18 5 -22 8 -3 4 1 5 10 4 8 -1 18 -5
22 -8z"/>
<path d="M2910 5581 c0 -5 5 -13 10 -16 6 -3 10 -2 10 4 0 5 -4 13 -10 16 -5
3 -10 2 -10 -4z"/>
<path d="M3068 5570 c-15 -17 -15 -19 3 -36 18 -16 18 -15 17 20 -1 20 -2 36
-2 35 -1 0 -9 -9 -18 -19z"/>
<path d="M2986 5568 c3 -5 10 -6 15 -3 13 9 11 12 -6 12 -8 0 -12 -4 -9 -9z"/>
<path d="M2725 5550 c-3 -5 -1 -10 4 -10 6 0 11 5 11 10 0 6 -2 10 -4 10 -3 0
-8 -4 -11 -10z"/>
<path d="M2427 5523 c-10 -9 -9 -23 1 -23 5 0 9 7 9 15 0 17 -1 18 -10 8z"/>
<path d="M2770 5470 c0 -5 5 -10 11 -10 5 0 7 5 4 10 -3 6 -8 10 -11 10 -2 0
-4 -4 -4 -10z"/>
<path d="M2476 5428 c3 -5 10 -6 15 -3 13 9 11 12 -6 12 -8 0 -12 -4 -9 -9z"/>
<path d="M3147 5410 c3 -11 7 -20 9 -20 2 0 4 9 4 20 0 11 -4 20 -9 20 -5 0
-7 -9 -4 -20z"/>
<path d="M2560 5400 c0 -6 7 -13 15 -17 24 -9 27 1 5 15 -13 8 -20 8 -20 2z"/>
<path d="M2850 5360 c0 -5 5 -10 11 -10 5 0 7 5 4 10 -3 6 -8 10 -11 10 -2 0
-4 -4 -4 -10z"/>
<path d="M2887 5329 c7 -7 15 -10 18 -7 3 3 -2 9 -12 12 -14 6 -15 5 -6 -5z"/>
<path d="M3120 5330 c0 -5 5 -10 10 -10 6 0 10 5 10 10 0 6 -4 10 -10 10 -5 0
-10 -4 -10 -10z"/>
<path d="M3118 5230 c-2 -39 0 -56 7 -49 11 11 14 109 4 109 -4 0 -9 -27 -11
-60z"/>
<path d="M2791 5256 c-1 -21 -5 -27 -16 -22 -8 3 -15 1 -15 -5 0 -5 10 -14 23
-19 17 -7 18 -9 4 -9 -14 -1 -15 -4 -5 -20 7 -11 15 -18 18 -16 4 2 7 -2 7
-10 0 -8 -5 -12 -11 -9 -6 3 -1 -3 12 -12 12 -9 22 -22 22 -28 0 -6 -5 -4 -11
4 -7 10 -9 11 -7 2 2 -8 7 -13 11 -13 4 1 14 1 22 1 24 0 20 91 -6 124 -11 14
-24 24 -29 21 -5 -3 -11 5 -13 17 -4 19 -5 18 -6 -6z"/>
<path d="M2715 5050 c4 -6 11 -8 16 -5 14 9 11 15 -7 15 -8 0 -12 -5 -9 -10z"/>
<path d="M4711 5003 c0 -12 -4 -30 -7 -40 -5 -17 -5 -17 6 0 6 10 9 28 7 40
-4 22 -4 22 -6 0z"/>
<path d="M2787 4906 c-4 -10 -1 -13 9 -9 15 6 19 23 5 23 -5 0 -11 -7 -14 -14z"/>
<path d="M2790 4865 c-7 -9 -8 -15 -2 -15 5 0 12 7 16 15 3 8 4 15 2 15 -2 0
-9 -7 -16 -15z"/>
<path d="M2891 4846 c-10 -12 -8 -13 8 -9 12 3 18 9 15 14 -7 12 -10 11 -23
-5z"/>
<path d="M2760 4769 c0 -5 5 -7 10 -4 6 3 10 8 10 11 0 2 -4 4 -10 4 -5 0 -10
-5 -10 -11z"/>
<path d="M2865 4770 c3 -5 8 -10 11 -10 2 0 4 5 4 10 0 6 -5 10 -11 10 -5 0
-7 -4 -4 -10z"/>
<path d="M2891 4734 c0 -11 3 -14 6 -6 3 7 2 16 -1 19 -3 4 -6 -2 -5 -13z"/>
<path d="M2923 4737 c-16 -20 -23 -46 -13 -52 9 -6 8 -24 -3 -42 -4 -6 -2 -15
4 -19 8 -4 9 -3 5 4 -4 7 -3 12 2 12 6 0 12 -7 16 -15 8 -23 31 -18 34 8 5 45
5 52 4 74 -2 28 -36 48 -49 30z"/>
<path d="M7108 4729 c-141 -20 -277 -89 -363 -181 -56 -60 -131 -197 -122
-221 4 -11 300 -97 334 -97 6 0 18 18 28 39 23 52 87 115 144 143 38 19 62 23
141 23 85 0 100 -3 141 -27 65 -38 106 -89 125 -155 40 -137 -20 -266 -145
-315 -44 -17 -84 -22 -188 -26 l-133 -4 0 -148 0 -147 123 -6 c274 -13 399
-108 399 -301 -1 -100 -27 -161 -99 -226 -122 -112 -332 -121 -448 -19 -47 42
-73 80 -94 138 l-17 48 -172 -46 c-149 -39 -172 -48 -172 -65 0 -11 18 -57 41
-103 107 -223 323 -338 629 -336 220 2 381 61 505 187 114 115 156 223 157
393 0 234 -125 417 -317 464 -51 12 -82 29 -53 29 8 0 47 16 85 35 177 89 272
295 231 503 -28 141 -93 240 -207 316 -142 95 -352 135 -553 105z"/>
<path d="M5290 4469 c-151 -126 -283 -238 -293 -248 -18 -18 -16 -21 69 -122
48 -57 90 -108 95 -113 4 -5 90 68 191 162 l183 170 3 -799 2 -799 165 0 165
0 0 990 0 990 -152 0 -153 -1 -275 -230z"/>
<path d="M2766 4652 c-3 -5 1 -9 9 -9 8 0 12 4 9 9 -3 4 -7 8 -9 8 -2 0 -6 -4
-9 -8z"/>
<path d="M2776 4608 c3 -5 10 -6 15 -3 13 9 11 12 -6 12 -8 0 -12 -4 -9 -9z"/>
<path d="M3001 4564 c0 -11 3 -14 6 -6 3 7 2 16 -1 19 -3 4 -6 -2 -5 -13z"/>
<path d="M4571 4524 c-6 -15 -9 -29 -7 -32 3 -2 10 8 16 23 14 36 7 43 -9 9z"/>
<path d="M3000 4510 c0 -5 5 -10 11 -10 5 0 7 5 4 10 -3 6 -8 10 -11 10 -2 0
-4 -4 -4 -10z"/>
<path d="M2995 4455 c-3 -8 -7 -21 -9 -28 -2 -8 0 -20 6 -28 8 -11 9 -10 4 5
-5 14 -2 17 10 12 14 -5 15 -4 4 9 -8 10 -9 15 -1 15 6 0 11 7 11 15 0 8 -5
15 -10 15 -6 0 -13 -7 -15 -15z"/>
<path d="M2981 4364 c0 -11 3 -14 6 -6 3 7 2 16 -1 19 -3 4 -6 -2 -5 -13z"/>
<path d="M3008 4259 c17 -18 15 -30 -3 -23 -11 5 -13 2 -9 -10 3 -9 11 -13 17
-9 6 4 8 0 4 -10 -3 -9 0 -18 9 -21 8 -3 14 -12 14 -21 0 -8 4 -15 9 -15 5 0
13 -9 16 -20 6 -19 45 -29 45 -11 0 19 -23 71 -31 71 -5 0 -9 8 -9 18 0 21
-24 45 -55 56 -16 6 -18 5 -7 -5z"/>
<path d="M2945 4180 c-3 -5 -1 -10 4 -10 6 0 11 5 11 10 0 6 -2 10 -4 10 -3 0
-8 -4 -11 -10z"/>
<path d="M3010 4169 c0 -5 5 -7 10 -4 6 3 10 8 10 11 0 2 -4 4 -10 4 -5 0 -10
-5 -10 -11z"/>
<path d="M3103 4093 c4 -6 1 -14 -5 -16 -8 -3 -6 -6 5 -6 10 -1 15 -5 12 -11
-3 -5 -1 -10 4 -10 17 0 13 26 -6 41 -9 8 -14 9 -10 2z"/>
<path d="M3885 3170 c3 -5 8 -10 11 -10 2 0 4 5 4 10 0 6 -5 10 -11 10 -5 0
-7 -4 -4 -10z"/>
</g>
</svg>
